<svg xmlns="http://www.w3.org/2000/svg" width="221.68509mm" height="215.20364mm" viewBox="0 0 221.68509 215.20365"><g style="stroke-width:.42382"><g style="stroke-width:.0697027"><path d="M0 0c-.923 3.205.261 8.775 1.867 11.963l-.691.691-5.866-5.865a1.55 1.55 0 0 0-.253-1.848 1.548 1.548 0 1 0-.342 2.443l5.864 5.868-.69.687c-3.186-1.602-8.76-2.788-11.96-1.863l-7.313-8.435L-9.269-8.032Z" style="fill:#fbc707;fill-opacity:1;fill-rule:nonzero;stroke:none;stroke-width:.0697027" transform="matrix(5.06118 0 0 -5.06118 212.236 70.559)"/></g><g style="stroke-width:.0697027"><path d="M0 0a4.917 4.917 0 0 1-1.147-3.92 6 6 0 0 1 5.09-5.09 4.922 4.922 0 0 1 3.918 1.149l10.81 9.367L8.752 10.1Z" style="fill:#fbc707;fill-opacity:1;fill-rule:nonzero;stroke:none;stroke-width:.0697027" transform="matrix(5.06118 0 0 -5.06118 12.547 169.351)"/></g><g style="stroke-width:.0697027"><path d="M0 0c-3.202-.922-8.775.264-11.962 1.868l-.693-.693 5.867-5.864c.589.33 1.346.245 1.846-.255a1.55 1.55 0 0 0 0-2.188 1.549 1.549 0 0 0-2.186 0 1.544 1.544 0 0 0-.255 1.848L-13.249.581l-.689-.691c1.603-3.185 2.787-8.759 1.865-11.962l31.592-27.382a4.928 4.928 0 0 1 3.921-1.149 5.995 5.995 0 0 1 5.088 5.093 4.914 4.914 0 0 1-1.146 3.917z" style="fill:#fbc707;fill-opacity:1;fill-rule:nonzero;stroke:none;stroke-width:.0697027" transform="matrix(5.06118 0 0 -5.06118 70.543 9.454)"/></g></g></svg>